<?xml version="1.0" encoding="UTF-8"?>
<!DOCTYPE svg PUBLIC "-//W3C//DTD SVG 1.1//EN" "http://www.w3.org/Graphics/SVG/1.1/DTD/svg11.dtd">
<!-- Creator: CorelDRAW 2020 (64-Bit) -->
<svg xmlns="http://www.w3.org/2000/svg" xml:space="preserve" width="2208px" height="2208px" version="1.1" style="shape-rendering:geometricPrecision; text-rendering:geometricPrecision; image-rendering:optimizeQuality; fill-rule:evenodd; clip-rule:evenodd"
viewBox="0 0 2206.31 2206.3"
 xmlns:xlink="http://www.w3.org/1999/xlink"
 xmlns:xodm="http://www.corel.com/coreldraw/odm/2003">
 <defs>
  <style type="text/css">
   <![CDATA[
    .fil0 {fill:#F2B127}
    .fil2 {fill:#FEFEFE;fill-rule:nonzero}
    .fil1 {fill:#F2B127;fill-rule:nonzero}
   ]]>
  </style>
 </defs>
 <g id="Layer_x0020_1">
  <metadata id="CorelCorpID_0Corel-Layer"/>
  <g id="_2416941104432">
   <g>
    <path class="fil0" d="M1029.92 484.15l-257.45 0c0,-0.4 0,-6.54 -1.23,-18.08 -0.82,-11.51 -3.67,-26.5 -8.18,-44.56 -4.89,-18.45 -12.24,-38.03 -22.87,-58.41 -10.64,-20.36 -24.93,-39.96 -44.15,-58.39 -18.78,-18.06 -42.89,-33.05 -72.73,-44.58 -29.43,-11.52 -65.38,-17.67 -108.3,-18.06 -42.91,0.39 -78.86,6.54 -108.29,18.06 -29.82,11.53 -53.93,26.52 -72.73,44.58 -19.22,18.43 -33.52,38.03 -44.14,58.39 -10.62,20.38 -17.98,39.96 -22.89,58.41 -4.49,18.06 -7.36,33.05 -8.17,44.56 -1.23,11.54 -1.23,17.68 -1.23,18.08l0 606.31c0,0.39 0,6.53 1.23,18.06 0.81,11.53 3.68,26.52 8.17,44.57 4.91,18.45 12.27,38.05 22.89,58.4 10.62,20.38 24.92,39.97 44.14,58.4 18.8,18.08 42.91,33.06 72.73,44.58 29.43,11.52 65.38,17.67 108.29,18.05 42.92,-0.38 78.87,-6.53 108.3,-18.05 29.84,-11.52 53.95,-26.5 72.73,-44.58 19.22,-18.43 33.51,-38.02 44.15,-58.4 10.63,-20.35 17.98,-39.95 22.87,-58.4 4.51,-18.05 7.36,-33.04 8.18,-44.57 1.23,-11.53 1.23,-17.67 1.23,-18.06l257.45 0c0.42,0.39 -0.41,9.22 -1.63,26.9 -1.22,17.28 -4.49,40.35 -10.22,69.16 -5.71,28.43 -15.53,60.32 -28.6,94.52 -13.49,34.19 -31.87,68.78 -55.58,102.97 -23.71,34.21 -54.36,66.09 -91.54,94.53 -37.19,28.82 -82.96,51.86 -136.49,69.16 -53.95,17.68 -117.69,26.52 -190.85,26.9 -73.15,-0.38 -136.89,-9.22 -190.84,-26.9 -53.54,-17.3 -99.3,-40.34 -136.49,-69.16 -37.19,-28.44 -67.83,-60.32 -91.54,-94.53 -23.7,-34.19 -42.09,-68.78 -55.58,-102.97 -13.07,-34.2 -22.88,-66.09 -28.6,-94.52 -5.72,-28.81 -9,-51.88 -10.22,-69.16 -1.23,-17.68 -2.04,-26.51 -1.63,-26.9l0 -606.31c-0.41,-0.4 0.4,-9.24 1.63,-26.91 1.22,-17.29 4.5,-40.34 10.22,-69.17 5.72,-28.42 15.53,-60.32 28.6,-94.51 13.49,-34.2 31.88,-68.77 55.58,-102.98 23.71,-34.19 54.35,-66.09 91.54,-94.52 37.19,-28.81 82.95,-51.87 136.49,-69.16 53.95,-17.67 117.69,-26.51 190.84,-26.9 73.16,0.39 136.9,9.23 190.85,26.9 53.53,17.29 99.3,40.35 136.49,69.16 37.18,28.43 67.83,60.33 91.54,94.52 23.71,34.21 42.09,68.78 55.58,102.98 13.07,34.19 22.89,66.09 28.6,94.51 5.73,28.83 9,51.88 10.22,69.17 1.22,17.67 2.05,26.51 1.63,26.91z"/>
    <polygon class="fil0" points="1377.97,908.23 2132.32,908.23 2132.32,666.18 1377.97,666.18 "/>
    <polygon class="fil0" points="1303.98,1341.32 1303.98,1574.6 2206.31,1574.6 2206.31,1332.54 1609.36,1332.54 1304.78,1332.34 "/>
    <polygon class="fil0" points="1303.98,0 1303.98,242.06 1561.45,242.06 1609.36,242.06 2206.31,242.06 2206.31,0 "/>
   </g>
   <g>
    <polygon class="fil1" points="84.68,2024.37 2121.65,2024.37 2121.65,2032.45 84.68,2032.45 "/>
    <path class="fil1" d="M192.85 1906.21c0.18,0.98 0.27,2.1 0.32,3.26 0.04,1.17 0.09,2.93 0.09,5.3 0,18.45 -5.31,32.69 -15.97,42.71 -10.62,10.03 -25.8,15.06 -45.53,15.06 -9.1,0 -17.61,-1.12 -25.53,-3.4 -7.86,-2.28 -14.22,-5.38 -18.94,-9.33 -8.14,-6.63 -13.91,-16.05 -17.29,-28.22 -3.39,-12.18 -5.08,-31.92 -5.08,-59.2 0,-18.75 1.05,-33.29 3.16,-43.62 2.1,-10.32 5.58,-18.93 10.52,-25.81 4.9,-6.97 11.9,-12.3 20.96,-15.96 9.05,-3.66 19.71,-5.46 31.93,-5.46 20,0 35.09,4.77 45.21,14.37 10.15,9.59 15.23,23.83 15.23,42.76l0 3.52 -41.36 0 0 -3.52c0,-9.86 -1.6,-17.13 -4.9,-21.86 -3.24,-4.77 -8.23,-7.14 -14.91,-7.14 -9.29,0 -15.7,4.17 -19.17,12.48 -3.48,8.3 -5.22,27.66 -5.22,57.99 0,25.42 1.83,42.37 5.45,50.84 3.61,8.44 10.11,12.65 19.49,12.65 6.68,0 11.71,-2.58 15.05,-7.7 3.34,-5.12 5.03,-12.86 5.03,-23.31 0,-0.65 -0.04,-1.68 -0.13,-3.06 -0.1,-1.42 -0.14,-2.54 -0.14,-3.35l41.73 0z"/>
    <polygon id="1" class="fil1" points="221.67,1969.7 221.67,1783.86 328.5,1783.86 328.5,1812.51 263.4,1812.51 263.4,1856.91 323.29,1856.91 323.29,1885.56 263.4,1885.56 263.4,1939.76 330.93,1939.76 330.93,1969.7 "/>
    <polygon id="2" class="fil1" points="457.76,1969.7 457.76,1814.32 412.74,1814.32 412.74,1783.86 545.6,1783.86 545.6,1814.32 500.31,1814.32 500.31,1969.7 "/>
    <polygon id="3" class="fil1" points="565.05,1969.7 565.05,1783.86 671.88,1783.86 671.88,1812.51 606.77,1812.51 606.77,1856.91 666.67,1856.91 666.67,1885.56 606.77,1885.56 606.77,1939.76 674.31,1939.76 674.31,1969.7 "/>
    <path id="4" class="fil1" d="M826.94 1906.21c0.18,0.98 0.27,2.1 0.32,3.26 0.04,1.17 0.09,2.93 0.09,5.3 0,18.45 -5.31,32.69 -15.97,42.71 -10.61,10.03 -25.8,15.06 -45.52,15.06 -9.11,0 -17.62,-1.12 -25.53,-3.4 -7.87,-2.28 -14.23,-5.38 -18.94,-9.33 -8.15,-6.63 -13.91,-16.05 -17.3,-28.22 -3.38,-12.18 -5.08,-31.92 -5.08,-59.2 0,-18.75 1.06,-33.29 3.16,-43.62 2.1,-10.32 5.58,-18.93 10.52,-25.81 4.9,-6.97 11.9,-12.3 20.96,-15.96 9.06,-3.66 19.72,-5.46 31.93,-5.46 20,0 35.1,4.77 45.21,14.37 10.16,9.59 15.23,23.83 15.23,42.76l0 3.52 -41.36 0 0 -3.52c0,-9.86 -1.6,-17.13 -4.89,-21.86 -3.25,-4.77 -8.24,-7.14 -14.92,-7.14 -9.29,0 -15.69,4.17 -19.17,12.48 -3.48,8.3 -5.21,27.66 -5.21,57.99 0,25.42 1.83,42.37 5.44,50.84 3.62,8.44 10.11,12.65 19.49,12.65 6.68,0 11.71,-2.58 15.05,-7.7 3.34,-5.12 5.04,-12.86 5.04,-23.31 0,-0.65 -0.05,-1.68 -0.14,-3.06 -0.09,-1.42 -0.14,-2.54 -0.14,-3.35l41.73 0z"/>
    <polygon id="5" class="fil1" points="896.94,1969.7 855.76,1969.7 855.76,1783.86 896.94,1783.86 896.94,1856.13 941.96,1856.13 941.96,1783.86 983.41,1783.86 983.41,1969.7 941.96,1969.7 941.96,1887.36 896.94,1887.36 "/>
    <path id="6" class="fil1" d="M1018.51 1969.7l0 -185.84 55.45 0 37.88 96.49c4.44,11.27 8.38,22.24 11.81,32.95 3.47,10.71 6.36,21.25 8.78,31.58 -0.96,-7.96 -1.74,-16.39 -2.29,-25.25 -0.5,-8.86 -0.77,-18.41 -0.77,-28.65l-2.43 -107.12 38.16 0 0 185.84 -54.08 0 -40.13 -101.7c-2.97,-7.61 -6.13,-16.77 -9.51,-27.44 -3.43,-10.67 -6.91,-22.41 -10.48,-35.28 0.96,11.75 1.74,22.07 2.29,30.98 0.5,8.9 0.82,16.47 0.91,22.71l2.29 110.73 -37.88 0z"/>
    <path id="7" class="fil1" d="M1264.25 1972.54c-9.11,0 -17.62,-1.12 -25.53,-3.4 -7.92,-2.28 -14.23,-5.38 -18.94,-9.33 -8.15,-6.63 -13.96,-16.26 -17.48,-28.83 -3.53,-12.6 -5.31,-31.4 -5.31,-56.35 0,-19.32 1.05,-34.37 3.2,-45.21 2.15,-10.84 5.68,-19.66 10.62,-26.46 4.8,-6.88 11.8,-12.17 20.95,-15.87 9.15,-3.7 19.9,-5.55 32.21,-5.55 9.47,0 18.12,1.16 25.99,3.48 7.87,2.28 14.28,5.51 19.31,9.64 7.78,6.45 13.31,15.4 16.65,26.88 3.34,11.45 5.04,28.4 5.04,50.85 0,23.32 -1.06,40.44 -3.21,51.32 -2.15,10.89 -5.76,19.88 -10.84,27.02 -4.85,6.88 -11.85,12.26 -21.05,16.09 -9.19,3.83 -19.76,5.72 -31.61,5.72zm-25.81 -96.19c0,27.36 1.83,45.43 5.49,54.16 3.66,8.73 10.25,13.12 19.72,13.12 9.84,0 16.57,-4.21 20.27,-12.65 3.71,-8.47 5.58,-27.31 5.58,-56.52 0,-25.86 -1.83,-43.02 -5.49,-51.41 -3.66,-8.39 -10.29,-12.6 -19.85,-12.6 -9.7,0 -16.43,4.3 -20.14,12.86 -3.7,8.56 -5.58,26.24 -5.58,53.04z"/>
    <polygon id="8" class="fil1" points="1363.03,1969.7 1363.03,1783.86 1404.75,1783.86 1404.75,1936.92 1465.15,1936.92 1465.15,1969.7 "/>
    <path id="9" class="fil1" d="M1545.49 1972.54c-9.1,0 -17.61,-1.12 -25.53,-3.4 -7.91,-2.28 -14.23,-5.38 -18.94,-9.33 -8.14,-6.63 -13.95,-16.26 -17.48,-28.83 -3.52,-12.6 -5.3,-31.4 -5.3,-56.35 0,-19.32 1.05,-34.37 3.2,-45.21 2.15,-10.84 5.67,-19.66 10.61,-26.46 4.81,-6.88 11.81,-12.17 20.96,-15.87 9.15,-3.7 19.9,-5.55 32.21,-5.55 9.47,0 18.12,1.16 25.99,3.48 7.86,2.28 14.27,5.51 19.3,9.64 7.78,6.45 13.32,15.4 16.66,26.88 3.34,11.45 5.03,28.4 5.03,50.85 0,23.32 -1.05,40.44 -3.2,51.32 -2.15,10.89 -5.77,19.88 -10.85,27.02 -4.85,6.88 -11.85,12.26 -21.04,16.09 -9.2,3.83 -19.77,5.72 -31.62,5.72zm-25.8 -96.19c0,27.36 1.83,45.43 5.49,54.16 3.66,8.73 10.25,13.12 19.72,13.12 9.83,0 16.56,-4.21 20.27,-12.65 3.7,-8.47 5.58,-27.31 5.58,-56.52 0,-25.86 -1.83,-43.02 -5.49,-51.41 -3.66,-8.39 -10.3,-12.6 -19.86,-12.6 -9.7,0 -16.42,4.3 -20.13,12.86 -3.71,8.56 -5.58,26.24 -5.58,53.04z"/>
    <path id="10" class="fil1" d="M1773.57 1871.88l0 94.38c-13.31,2.28 -24.57,3.87 -33.76,4.82 -9.25,0.99 -17.57,1.46 -25.08,1.46 -12.08,0 -22.28,-1.03 -30.65,-3.14 -8.37,-2.11 -15.15,-5.29 -20.45,-9.59 -8.1,-6.71 -13.87,-16.18 -17.3,-28.4 -3.38,-12.21 -5.08,-31.92 -5.08,-59.02 0,-18.75 1.06,-33.29 3.16,-43.62 2.1,-10.32 5.58,-18.93 10.52,-25.81 5.08,-7.14 12.26,-12.52 21.51,-16.09 9.24,-3.57 20.59,-5.33 33.99,-5.33 20.55,0 36.24,4.82 46.99,14.49 10.75,9.68 16.15,23.79 16.15,42.33l0 2.8 -40.54 0 0 -2.28c0,-10.5 -1.96,-18.28 -5.85,-23.4 -3.89,-5.08 -9.84,-7.62 -17.89,-7.62 -10.11,0 -17.07,4.22 -20.87,12.7 -3.79,8.43 -5.71,27.01 -5.71,55.79 0,30.33 2.28,49.43 6.9,57.3 4.63,7.87 13.23,11.79 25.81,11.79 2.79,0 5.81,-0.22 9.06,-0.65 3.29,-0.38 7.09,-1.12 11.48,-2.15l0 -41.6 -22.78 0 0 -29.16 60.39 0z"/>
    <polygon id="11" class="fil1" points="1806.47,1969.7 1806.47,1783.86 1846.82,1783.86 1846.82,1969.7 "/>
    <polygon id="12" class="fil1" points="1882.46,1969.7 1882.46,1783.86 1989.3,1783.86 1989.3,1812.51 1924.19,1812.51 1924.19,1856.91 1984.08,1856.91 1984.08,1885.56 1924.19,1885.56 1924.19,1939.76 1991.72,1939.76 1991.72,1969.7 "/>
    <path id="13" class="fil1" d="M2014.23 1912.4l42 0 0 4.9c0,9.6 1.74,16.39 5.17,20.48 3.44,4.09 9.2,6.11 17.25,6.11 6.36,0 11.4,-1.81 15.1,-5.46 3.71,-3.66 5.58,-8.65 5.58,-14.93 0,-8.82 -8.78,-18.63 -26.3,-29.38l-2.52 -1.51c-9.24,-5.63 -16.56,-10.24 -22.05,-13.85 -5.54,-3.61 -9.61,-6.63 -12.31,-8.95 -7.23,-6.24 -12.17,-12.09 -14.87,-17.59 -2.7,-5.51 -4.03,-12.31 -4.03,-20.35 0,-15.57 5.68,-27.96 16.98,-37.21 11.3,-9.25 26.53,-13.9 45.66,-13.9 19.76,0 34.59,4.3 44.56,12.87 9.98,8.6 14.96,21.33 14.96,38.24l0 4.9 -40.9 0 0 -0.99c0,-8.77 -1.69,-15.35 -5.03,-19.74 -3.34,-4.43 -8.37,-6.63 -15.06,-6.63 -6.08,0 -10.93,1.72 -14.55,5.17 -3.61,3.44 -5.44,8.13 -5.44,13.98 0,10.02 11.44,21.42 34.32,34.2 5.9,3.35 10.47,5.98 13.68,7.91 12.99,7.74 22,15.14 27.04,22.24 5.07,7.1 7.59,15.53 7.59,25.38 0,18.03 -5.63,31.62 -16.88,40.78 -11.26,9.17 -27.96,13.73 -50.01,13.73 -20.73,0 -35.96,-4.35 -45.66,-13.04 -9.7,-8.69 -14.55,-22.28 -14.55,-40.82 0,-0.69 0.04,-1.72 0.14,-3.14 0.09,-1.42 0.13,-2.58 0.13,-3.4z"/>
    <polygon class="fil2" points="122.1,2177.5 122.1,2076.85 93.88,2076.85 93.88,2068.37 160.46,2068.37 160.46,2076.85 132.09,2076.85 132.09,2177.5 "/>
    <path id="1" class="fil2" d="M160.6 2177.5l0 -66.26c0,-1.37 -0.11,-2.96 -0.33,-4.73 -0.21,-1.79 -0.53,-3.84 -1.02,-6.16l10.16 0 1.02 10.89c2.58,-3.92 5.56,-6.85 8.92,-8.77 3.36,-1.92 7.23,-2.88 11.61,-2.88l1.88 0 0 7.88 -2.04 0c-6.32,0 -11.26,1.9 -14.83,5.66 -3.58,3.79 -5.38,9.02 -5.38,15.74l0 48.63 -9.99 0z"/>
    <path id="2" class="fil2" d="M243.3 2137.48c-13.44,0.11 -22.57,1.47 -27.41,4.07 -4.84,2.6 -7.25,7.28 -7.25,13.97 0,4.78 1.23,8.54 3.73,11.24 2.47,2.71 5.89,4.07 10.21,4.07 6.8,0 11.98,-2.1 15.5,-6.32 3.52,-4.21 5.3,-10.4 5.3,-18.51l-0.08 -8.52zm1.98 40.02l-0.96 -10.43c-3.06,3.63 -6.61,6.41 -10.59,8.26 -3.98,1.84 -8.3,2.78 -13.03,2.78 -6.53,0 -11.77,-2.08 -15.69,-6.19 -3.92,-4.12 -5.88,-9.58 -5.88,-16.4 0,-8.03 2.92,-14.07 8.76,-18.09 5.83,-4.01 14.8,-6.24 26.94,-6.61l8.55 -0.31 0 -8.44c0,-5.45 -1.32,-9.37 -3.95,-11.69 -2.66,-2.35 -6.96,-3.51 -12.9,-3.51 -4.92,0 -8.6,1.06 -11.01,3.15 -2.45,2.13 -3.71,5.31 -3.82,9.58l-9.83 0.07c0,-6.61 2.23,-11.62 6.69,-15 4.46,-3.39 11.04,-5.08 19.72,-5.08 8.65,0 15.02,1.77 19.07,5.33 4.06,3.56 6.1,9.12 6.1,16.7l0 41.96c0,2.12 0.08,4.37 0.25,6.69 0.16,2.35 0.37,4.75 0.69,7.23l-9.11 0z"/>
    <path id="3" class="fil2" d="M282.28 2177.5l-9.67 0 0 -65.51c0,-1.13 -0.05,-2.52 -0.19,-4.14 -0.13,-1.64 -0.32,-3.79 -0.59,-6.44l9.59 0 0.86 8.94c2.47,-3.53 5.51,-6.21 9.11,-8.03 3.6,-1.82 7.66,-2.73 12.17,-2.73 6.5,0 11.64,1.9 15.37,5.66 3.73,3.76 5.59,8.94 5.59,15.54l0 56.71 -9.67 0 0 -53.08c0,-5.78 -1.13,-10.03 -3.39,-12.8 -2.26,-2.76 -5.8,-4.15 -10.64,-4.15 -5.99,0 -10.58,2.2 -13.75,6.62 -3.2,4.42 -4.79,10.81 -4.79,19.15l0 44.26z"/>
    <path id="4" class="fil2" d="M341.12 2154.92l10.16 0 0 1.76c0,5.11 1.18,9 3.55,11.65 2.36,2.68 5.75,4.02 10.13,4.02 4.99,0 8.86,-1.24 11.66,-3.74 2.76,-2.5 4.16,-5.99 4.16,-10.49 0,-2.62 -0.83,-4.95 -2.47,-6.99 -1.67,-2.05 -4.33,-4.02 -7.98,-5.89l-13.38 -6.67c-4.84,-2.48 -8.36,-5.25 -10.56,-8.39 -2.2,-3.13 -3.31,-6.87 -3.31,-11.21 0,-6.12 2.02,-10.87 6.02,-14.28 4.03,-3.41 9.7,-5.1 17.04,-5.1 7.6,0 13.22,1.69 16.87,5.08 3.65,3.36 5.48,8.56 5.48,15.56l0 1.34 -9.13 0 0 -1.04c0,-4.7 -1.05,-8.08 -3.17,-10.13 -2.13,-2.04 -5.59,-3.08 -10.35,-3.08 -4.19,0 -7.47,0.94 -9.75,2.8 -2.31,1.9 -3.47,4.53 -3.47,7.94 0,2.78 0.81,5.15 2.39,7.12 1.62,1.97 4.41,3.94 8.39,5.94l12.57 6.34c4.94,2.53 8.52,5.38 10.78,8.61 2.25,3.24 3.38,7.2 3.38,11.88 0,6.84 -2.18,12.12 -6.5,15.81 -4.33,3.71 -10.48,5.56 -18.51,5.56 -7.98,0 -13.97,-1.87 -17.98,-5.58 -4,-3.72 -6.02,-9.28 -6.02,-16.68l0 -2.14z"/>
    <path id="5" class="fil2" d="M410.77 2177.5l0 -68.36 -13.06 0 0 -7.73 13.06 0 0 -16.04c0,-4.4 0.4,-7.63 1.2,-9.75 0.84,-2.1 2.21,-3.82 4.14,-5.13 1.88,-1.34 4.44,-2.3 7.61,-2.91 3.17,-0.58 7.49,-0.88 13,-0.88l0 7.88 -2.28 0c-5.51,0 -9.19,0.86 -11.05,2.55 -1.85,1.7 -2.79,5.86 -2.79,12.46l0 11.82 16.28 0 0 7.73 -16.28 0 0 68.36 -9.83 0z"/>
    <path id="6" class="fil2" d="M444.32 2139.45c0,-14.6 2.18,-24.88 6.53,-30.87 4.36,-5.98 11.66,-8.99 21.9,-8.99 10.16,0 17.44,3.01 21.79,8.99 4.35,5.99 6.53,16.27 6.53,30.87 0,14.76 -2.15,25.06 -6.45,31 -4.3,5.91 -11.55,8.87 -21.74,8.87 -10.21,0 -17.54,-3.03 -21.95,-9.1 -4.4,-6.06 -6.61,-16.32 -6.61,-30.77zm28.43 32.14c6.56,0 11.23,-2.27 14.08,-6.85 2.82,-4.57 4.24,-12.33 4.24,-23.29 0,-13.19 -1.37,-22.15 -4.08,-26.95 -2.74,-4.78 -7.5,-7.18 -14.24,-7.18 -6.72,0 -11.47,2.35 -14.27,7.07 -2.76,4.7 -4.16,13.06 -4.16,25.06 0,12.16 1.37,20.54 4.14,25.19 2.74,4.62 7.52,6.95 14.29,6.95z"/>
    <path id="7" class="fil2" d="M517.81 2177.5l0 -66.26c0,-1.37 -0.11,-2.96 -0.32,-4.73 -0.22,-1.79 -0.54,-3.84 -1.03,-6.16l10.16 0 1.02 10.89c2.58,-3.92 5.56,-6.85 8.92,-8.77 3.36,-1.92 7.23,-2.88 11.61,-2.88l1.88 0 0 7.88 -2.04 0c-6.32,0 -11.26,1.9 -14.83,5.66 -3.58,3.79 -5.38,9.02 -5.38,15.74l0 48.63 -9.99 0z"/>
    <path id="8" class="fil2" d="M570.68 2110.35c2.48,-3.53 5.51,-6.21 9.11,-8.03 3.6,-1.82 7.66,-2.73 12.17,-2.73 4.95,0 9.11,1.09 12.5,3.26 3.38,2.15 5.88,5.31 7.52,9.42 2.2,-4.01 5.24,-7.15 9.14,-9.37 3.86,-2.2 8.24,-3.31 13.14,-3.31 6.5,0 11.63,1.9 15.39,5.68 3.79,3.79 5.67,8.97 5.67,15.52l0 56.71 -9.84 0 0 -53.08c0,-5.81 -1.1,-10.1 -3.33,-12.83 -2.23,-2.75 -5.75,-4.12 -10.5,-4.12 -6.05,0 -10.64,2.2 -13.81,6.62 -3.17,4.42 -4.76,10.81 -4.76,19.15l0 44.26 -9.99 0 0 -53.08c0,-5.81 -1.13,-10.1 -3.36,-12.83 -2.23,-2.75 -5.72,-4.12 -10.51,-4.12 -5.99,0 -10.58,2.2 -13.75,6.62 -3.2,4.42 -4.79,10.81 -4.79,19.15l0 44.26 -9.67 0 0 -65.51c0,-1.13 -0.05,-2.52 -0.19,-4.14 -0.13,-1.64 -0.32,-3.79 -0.59,-6.44l9.59 0 0.86 8.94z"/>
    <path id="9" class="fil2" d="M673.4 2080.04l0 -11.67 11.45 0 0 11.67 -11.45 0zm0.49 97.46l0 -76.09 10.47 0 0 76.09 -10.47 0z"/>
    <path id="10" class="fil2" d="M712.76 2177.5l-9.67 0 0 -65.51c0,-1.13 -0.05,-2.52 -0.19,-4.14 -0.13,-1.64 -0.32,-3.79 -0.59,-6.44l9.59 0 0.86 8.94c2.48,-3.53 5.51,-6.21 9.11,-8.03 3.6,-1.82 7.66,-2.73 12.17,-2.73 6.51,0 11.64,1.9 15.37,5.66 3.74,3.76 5.59,8.94 5.59,15.54l0 56.71 -9.67 0 0 -53.08c0,-5.78 -1.13,-10.03 -3.39,-12.8 -2.25,-2.76 -5.8,-4.15 -10.64,-4.15 -5.99,0 -10.58,2.2 -13.75,6.62 -3.2,4.42 -4.79,10.81 -4.79,19.15l0 44.26z"/>
    <path id="11" class="fil2" d="M816.91 2137.16c0,-10.16 -1.46,-17.69 -4.38,-22.54 -2.91,-4.87 -7.42,-7.3 -13.55,-7.3 -6.39,0 -10.96,2.22 -13.65,6.67 -2.71,4.45 -4.05,12.15 -4.05,23.17 0,11.59 1.29,19.68 3.89,24.25 2.58,4.57 7.04,6.84 13.33,6.84 6.5,0 11.2,-2.4 14.08,-7.17 2.87,-4.8 4.33,-12.76 4.33,-23.92zm10.45 -36.96c-0.25,1.59 -0.43,3.31 -0.51,5.18 -0.08,1.89 -0.11,4.7 -0.11,8.46l0 61.54c0,6.92 -0.35,11.79 -1.02,14.68 -0.67,2.9 -1.8,5.33 -3.39,7.3 -2.31,2.85 -5.51,5.05 -9.59,6.61 -4.08,1.55 -8.79,2.33 -14.08,2.33 -8.03,0 -14.16,-1.9 -18.38,-5.66 -4.22,-3.79 -6.44,-9.37 -6.71,-16.77l10.61 0c0,5.18 1.24,8.94 3.65,11.31 2.45,2.35 6.34,3.54 11.69,3.54 6.13,0 10.53,-1.54 13.22,-4.62 2.66,-3.09 4,-8.21 4,-15.39l0 -13.18c-2.04,3.46 -4.64,6.01 -7.82,7.68 -3.17,1.64 -7.01,2.47 -11.52,2.47 -9.14,0 -15.72,-3.03 -19.83,-9.09 -4.09,-6.09 -6.13,-15.97 -6.13,-29.69 0,-12.93 2.1,-22.38 6.26,-28.34 4.17,-5.99 10.72,-8.97 19.7,-8.97 4.3,0 8.06,0.86 11.31,2.55 3.25,1.7 6.15,4.32 8.65,7.91l0.65 -9.85 9.35 0z"/>
    <polygon id="12" class="fil2" points="884.42,2177.5 884.42,2068.37 894.9,2068.37 894.9,2177.5 "/>
    <path id="13" class="fil2" d="M960.03 2177.5l-0.62 -8.79c-2.52,3.64 -5.4,6.31 -8.62,8.03 -3.23,1.72 -7.01,2.58 -11.37,2.58 -9.11,0 -15.71,-3.11 -19.83,-9.35 -4.08,-6.24 -6.12,-16.37 -6.12,-30.36 0,-14.15 2.04,-24.28 6.1,-30.39 4.05,-6.12 10.69,-9.17 19.85,-9.17 4.14,0 7.88,0.85 11.15,2.57 3.28,1.72 6.21,4.35 8.84,7.88l0 -42.13 9.35 0 0 95.51c0,3.74 0.03,6.57 0.11,8.44 0.08,1.87 0.27,3.59 0.51,5.18l-9.35 0zm-36.73 -35.75c0,10.61 1.34,18.22 4.06,22.79 2.69,4.6 7.09,6.9 13.16,6.9 6.32,0 10.94,-2.43 13.95,-7.3 2.98,-4.85 4.46,-12.36 4.46,-22.54 0,-12.23 -1.37,-20.94 -4.17,-26.09 -2.76,-5.16 -7.36,-7.73 -13.75,-7.73 -6.56,0 -11.15,2.34 -13.79,7.02 -2.6,4.7 -3.92,13.67 -3.92,26.95z"/>
    <path id="14" class="fil2" d="M995.66 2133.24l36.59 0 0 -3.33c0,-7.86 -1.42,-13.57 -4.3,-17.18 -2.84,-3.62 -7.39,-5.41 -13.57,-5.41 -6.34,0 -11.07,1.92 -14.13,5.74 -3.06,3.84 -4.59,9.75 -4.59,17.73l0 2.45zm46.43 21.22c-0.49,8.34 -2.99,14.55 -7.53,18.67 -4.54,4.12 -11.2,6.19 -20.01,6.19 -10.81,0 -18.36,-2.96 -22.63,-8.87 -4.27,-5.94 -6.42,-16.97 -6.42,-33.14 0,-8.64 0.54,-15.01 1.61,-19.13 1.08,-4.11 2.9,-7.58 5.48,-10.38 2.4,-2.63 5.51,-4.65 9.27,-6.06 3.79,-1.44 8.01,-2.15 12.69,-2.15 8.81,0 15.61,2.53 20.36,7.6 4.78,5.08 7.18,12.31 7.18,21.68l0 12.1 -46.59 0 0 6.49c0,8.34 1.47,14.45 4.43,18.32 2.98,3.86 7.63,5.81 13.97,5.81 5.88,0 10.29,-1.44 13.27,-4.3 2.96,-2.88 4.44,-7.15 4.44,-12.83l10.48 0z"/>
    <path id="15" class="fil2" d="M1098.32 2137.48c-13.43,0.11 -22.57,1.47 -27.4,4.07 -4.84,2.6 -7.26,7.28 -7.26,13.97 0,4.78 1.24,8.54 3.73,11.24 2.48,2.71 5.89,4.07 10.22,4.07 6.79,0 11.98,-2.1 15.5,-6.32 3.52,-4.21 5.29,-10.4 5.29,-18.51l-0.08 -8.52zm1.99 40.02l-0.97 -10.43c-3.06,3.63 -6.61,6.41 -10.58,8.26 -3.98,1.84 -8.31,2.78 -13.04,2.78 -6.52,0 -11.76,-2.08 -15.69,-6.19 -3.92,-4.12 -5.88,-9.58 -5.88,-16.4 0,-8.03 2.93,-14.07 8.76,-18.09 5.83,-4.01 14.8,-6.24 26.95,-6.61l8.54 -0.31 0 -8.44c0,-5.45 -1.32,-9.37 -3.95,-11.69 -2.66,-2.35 -6.96,-3.51 -12.9,-3.51 -4.91,0 -8.59,1.06 -11.01,3.15 -2.45,2.13 -3.71,5.31 -3.82,9.58l-9.83 0.07c0,-6.61 2.23,-11.62 6.69,-15 4.46,-3.39 11.04,-5.08 19.72,-5.08 8.65,0 15.02,1.77 19.08,5.33 4.05,3.56 6.1,9.12 6.1,16.7l0 41.96c0,2.12 0.08,4.37 0.24,6.69 0.16,2.35 0.37,4.75 0.7,7.23l-9.11 0z"/>
    <path id="16" class="fil2" d="M1125.7 2154.92l10.15 0 0 1.76c0,5.11 1.19,9 3.55,11.65 2.37,2.68 5.75,4.02 10.13,4.02 5,0 8.87,-1.24 11.66,-3.74 2.77,-2.5 4.17,-5.99 4.17,-10.49 0,-2.62 -0.84,-4.95 -2.48,-6.99 -1.66,-2.05 -4.32,-4.02 -7.98,-5.89l-13.38 -6.67c-4.83,-2.48 -8.35,-5.25 -10.56,-8.39 -2.2,-3.13 -3.3,-6.87 -3.3,-11.21 0,-6.12 2.02,-10.87 6.02,-14.28 4.03,-3.41 9.7,-5.1 17.03,-5.1 7.61,0 13.22,1.69 16.88,5.08 3.65,3.36 5.48,8.56 5.48,15.56l0 1.34 -9.14 0 0 -1.04c0,-4.7 -1.05,-8.08 -3.17,-10.13 -2.12,-2.04 -5.59,-3.08 -10.34,-3.08 -4.19,0 -7.47,0.94 -9.76,2.8 -2.31,1.9 -3.46,4.53 -3.46,7.94 0,2.78 0.8,5.15 2.39,7.12 1.61,1.97 4.41,3.94 8.38,5.94l12.58 6.34c4.94,2.53 8.51,5.38 10.77,8.61 2.26,3.24 3.39,7.2 3.39,11.88 0,6.84 -2.18,12.12 -6.51,15.81 -4.32,3.71 -10.47,5.56 -18.51,5.56 -7.98,0 -13.97,-1.87 -17.97,-5.58 -4.01,-3.72 -6.02,-9.28 -6.02,-16.68l0 -2.14z"/>
    <path id="17" class="fil2" d="M1228.07 2080.04l0 -11.67 11.44 0 0 11.67 -11.44 0zm0.48 97.46l0 -76.09 10.48 0 0 76.09 -10.48 0z"/>
    <path id="18" class="fil2" d="M1267.43 2177.5l-9.67 0 0 -65.51c0,-1.13 -0.06,-2.52 -0.19,-4.14 -0.14,-1.64 -0.33,-3.79 -0.59,-6.44l9.59 0 0.86 8.94c2.47,-3.53 5.51,-6.21 9.11,-8.03 3.6,-1.82 7.65,-2.73 12.17,-2.73 6.5,0 11.63,1.9 15.37,5.66 3.73,3.76 5.59,8.94 5.59,15.54l0 56.71 -9.68 0 0 -53.08c0,-5.78 -1.13,-10.03 -3.38,-12.8 -2.26,-2.76 -5.81,-4.15 -10.64,-4.15 -5.99,0 -10.59,2.2 -13.76,6.62 -3.2,4.42 -4.78,10.81 -4.78,19.15l0 44.26z"/>
    <path id="19" class="fil2" d="M1360.12 2177.05c-0.99,0.15 -2.2,0.27 -3.57,0.35 -1.4,0.07 -3.68,0.1 -6.91,0.1 -6.17,0 -10.39,-1.19 -12.62,-3.59 -2.23,-2.4 -3.34,-7.63 -3.34,-15.68l0 -49.55 -12.73 0 0 -7.27 12.73 0 0 -16.19 9.68 -4.42 0 20.61 16.76 0 0 7.27 -16.76 0 0 48.66c0,5.23 0.67,8.59 2.04,10.06 1.37,1.49 3.92,2.22 7.63,2.22 1.16,0 2.34,-0.08 3.55,-0.25 1.2,-0.18 2.39,-0.41 3.54,-0.71l0 8.39z"/>
    <path id="20" class="fil2" d="M1371.6 2139.45c0,-14.6 2.17,-24.88 6.52,-30.87 4.36,-5.98 11.67,-8.99 21.9,-8.99 10.16,0 17.44,3.01 21.79,8.99 4.36,5.99 6.53,16.27 6.53,30.87 0,14.76 -2.15,25.06 -6.45,31 -4.3,5.91 -11.55,8.87 -21.73,8.87 -10.21,0 -17.55,-3.03 -21.95,-9.1 -4.41,-6.06 -6.61,-16.32 -6.61,-30.77zm28.42 32.14c6.56,0 11.23,-2.27 14.08,-6.85 2.82,-4.57 4.25,-12.33 4.25,-23.29 0,-13.19 -1.37,-22.15 -4.09,-26.95 -2.74,-4.78 -7.49,-7.18 -14.24,-7.18 -6.72,0 -11.47,2.35 -14.26,7.07 -2.77,4.7 -4.17,13.06 -4.17,25.06 0,12.16 1.37,20.54 4.14,25.19 2.74,4.62 7.52,6.95 14.29,6.95z"/>
    <polygon id="21" class="fil2" points="1501.66,2177.5 1501.66,2076.85 1473.45,2076.85 1473.45,2068.37 1540.03,2068.37 1540.03,2076.85 1511.66,2076.85 1511.66,2177.5 "/>
    <path id="22" class="fil2" d="M1545.24 2133.24l36.6 0 0 -3.33c0,-7.86 -1.43,-13.57 -4.3,-17.18 -2.85,-3.62 -7.39,-5.41 -13.57,-5.41 -6.34,0 -11.07,1.92 -14.13,5.74 -3.06,3.84 -4.6,9.75 -4.6,17.73l0 2.45zm46.43 21.22c-0.48,8.34 -2.98,14.55 -7.52,18.67 -4.54,4.12 -11.21,6.19 -20.02,6.19 -10.8,0 -18.35,-2.96 -22.62,-8.87 -4.27,-5.94 -6.42,-16.97 -6.42,-33.14 0,-8.64 0.53,-15.01 1.61,-19.13 1.07,-4.11 2.9,-7.58 5.48,-10.38 2.39,-2.63 5.51,-4.65 9.27,-6.06 3.79,-1.44 8.01,-2.15 12.68,-2.15 8.81,0 15.61,2.53 20.37,7.6 4.78,5.08 7.17,12.31 7.17,21.68l0 12.1 -46.59 0 0 6.49c0,8.34 1.48,14.45 4.44,18.32 2.98,3.86 7.63,5.81 13.97,5.81 5.88,0 10.29,-1.44 13.27,-4.3 2.96,-2.88 4.43,-7.15 4.43,-12.83l10.48 0z"/>
    <path id="23" class="fil2" d="M1659.51 2154.92c-0.32,8.03 -2.71,14.17 -7.17,18.39 -4.46,4.21 -10.83,6.31 -19.1,6.31 -9.73,0 -16.69,-3.03 -20.91,-9.09 -4.21,-6.07 -6.34,-16.17 -6.34,-30.34 0,-14.53 2.07,-24.94 6.18,-31.2 4.11,-6.27 10.88,-9.4 20.26,-9.4 8.62,0 15.18,1.95 19.69,5.86 4.52,3.92 6.96,9.8 7.39,17.63l-9.75 -0.07c-0.24,-5.33 -1.75,-9.4 -4.46,-12.23 -2.74,-2.8 -6.56,-4.22 -11.47,-4.22 -6.5,0 -11.05,2.3 -13.63,6.9 -2.6,4.57 -3.89,13.16 -3.89,25.69 0,12.68 1.26,21.3 3.81,25.82 2.53,4.52 6.99,6.77 13.39,6.77 5.45,0 9.53,-1.39 12.25,-4.19 2.74,-2.78 4.19,-7 4.4,-12.63l9.35 0z"/>
    <path id="24" class="fil2" d="M1685.63 2177.5l-9.67 0 0 -109.13 9.67 0 0 41.98c2.47,-3.53 5.51,-6.21 9.11,-8.03 3.6,-1.82 7.66,-2.73 12.17,-2.73 6.5,0 11.63,1.9 15.37,5.66 3.73,3.76 5.59,8.94 5.59,15.54l0 56.71 -9.84 0 0 -53.08c0,-5.81 -1.13,-10.1 -3.36,-12.83 -2.23,-2.75 -5.72,-4.12 -10.5,-4.12 -5.99,0 -10.59,2.2 -13.76,6.62 -3.2,4.42 -4.78,10.81 -4.78,19.15l0 44.26z"/>
    <path id="25" class="fil2" d="M1756.08 2177.5l-9.68 0 0 -65.51c0,-1.13 -0.05,-2.52 -0.18,-4.14 -0.14,-1.64 -0.33,-3.79 -0.59,-6.44l9.59 0 0.86 8.94c2.47,-3.53 5.51,-6.21 9.1,-8.03 3.61,-1.82 7.66,-2.73 12.18,-2.73 6.5,0 11.63,1.9 15.37,5.66 3.73,3.76 5.58,8.94 5.58,15.54l0 56.71 -9.67 0 0 -53.08c0,-5.78 -1.13,-10.03 -3.38,-12.8 -2.26,-2.76 -5.81,-4.15 -10.64,-4.15 -5.99,0 -10.59,2.2 -13.76,6.62 -3.2,4.42 -4.78,10.81 -4.78,19.15l0 44.26z"/>
    <path id="26" class="fil2" d="M1814.76 2139.45c0,-14.6 2.17,-24.88 6.53,-30.87 4.35,-5.98 11.66,-8.99 21.89,-8.99 10.16,0 17.44,3.01 21.79,8.99 4.36,5.99 6.53,16.27 6.53,30.87 0,14.76 -2.15,25.06 -6.45,31 -4.29,5.91 -11.55,8.87 -21.73,8.87 -10.21,0 -17.55,-3.03 -21.95,-9.1 -4.41,-6.06 -6.61,-16.32 -6.61,-30.77zm28.42 32.14c6.56,0 11.24,-2.27 14.08,-6.85 2.82,-4.57 4.25,-12.33 4.25,-23.29 0,-13.19 -1.37,-22.15 -4.09,-26.95 -2.74,-4.78 -7.49,-7.18 -14.24,-7.18 -6.71,0 -11.47,2.35 -14.26,7.07 -2.77,4.7 -4.17,13.06 -4.17,25.06 0,12.16 1.37,20.54 4.14,25.19 2.74,4.62 7.52,6.95 14.29,6.95z"/>
    <polygon id="27" class="fil2" points="1888.24,2177.5 1888.24,2068.37 1898.24,2068.37 1898.24,2177.5 "/>
    <path id="28" class="fil2" d="M1915.19 2139.45c0,-14.6 2.18,-24.88 6.53,-30.87 4.35,-5.98 11.66,-8.99 21.9,-8.99 10.15,0 17.43,3.01 21.79,8.99 4.35,5.99 6.53,16.27 6.53,30.87 0,14.76 -2.15,25.06 -6.45,31 -4.3,5.91 -11.56,8.87 -21.74,8.87 -10.21,0 -17.54,-3.03 -21.95,-9.1 -4.41,-6.06 -6.61,-16.32 -6.61,-30.77zm28.43 32.14c6.55,0 11.23,-2.27 14.08,-6.85 2.82,-4.57 4.24,-12.33 4.24,-23.29 0,-13.19 -1.37,-22.15 -4.08,-26.95 -2.74,-4.78 -7.5,-7.18 -14.24,-7.18 -6.72,0 -11.47,2.35 -14.27,7.07 -2.77,4.7 -4.16,13.06 -4.16,25.06 0,12.16 1.37,20.54 4.13,25.19 2.74,4.62 7.53,6.95 14.3,6.95z"/>
    <path id="29" class="fil2" d="M2031.88 2137.16c0,-10.16 -1.45,-17.69 -4.38,-22.54 -2.9,-4.87 -7.42,-7.3 -13.54,-7.3 -6.4,0 -10.96,2.22 -13.65,6.67 -2.71,4.45 -4.06,12.15 -4.06,23.17 0,11.59 1.29,19.68 3.9,24.25 2.58,4.57 7.04,6.84 13.32,6.84 6.51,0 11.21,-2.4 14.08,-7.17 2.88,-4.8 4.33,-12.76 4.33,-23.92zm10.45 -36.96c-0.24,1.59 -0.43,3.31 -0.51,5.18 -0.08,1.89 -0.11,4.7 -0.11,8.46l0 61.54c0,6.92 -0.35,11.79 -1.02,14.68 -0.67,2.9 -1.8,5.33 -3.38,7.3 -2.31,2.85 -5.51,5.05 -9.6,6.61 -4.08,1.55 -8.78,2.33 -14.07,2.33 -8.04,0 -14.16,-1.9 -18.38,-5.66 -4.22,-3.79 -6.45,-9.37 -6.72,-16.77l10.61 0c0,5.18 1.24,8.94 3.66,11.31 2.44,2.35 6.34,3.54 11.69,3.54 6.12,0 10.53,-1.54 13.21,-4.62 2.66,-3.09 4.01,-8.21 4.01,-15.39l0 -13.18c-2.05,3.46 -4.65,6.01 -7.82,7.68 -3.17,1.64 -7.01,2.47 -11.53,2.47 -9.13,0 -15.71,-3.03 -19.83,-9.09 -4.08,-6.09 -6.12,-15.97 -6.12,-29.69 0,-12.93 2.09,-22.38 6.26,-28.34 4.16,-5.99 10.72,-8.97 19.69,-8.97 4.3,0 8.06,0.86 11.31,2.55 3.26,1.7 6.16,4.32 8.66,7.91l0.64 -9.85 9.35 0z"/>
    <polygon id="30" class="fil2" points="2069.36,2206.3 2078.9,2176.62 2053.13,2101.41 2063.13,2101.41 2083.92,2164.77 2102.43,2101.41 2112.13,2101.41 2079.22,2206.3 "/>
   </g>
  </g>
 </g>
</svg>
